<svg width="24" height="24" viewBox="0 0 24 24" fill="none" xmlns="http://www.w3.org/2000/svg">
<g clip-path="url(#clip0_992_585)">
<mask id="mask0_992_585" style="mask-type:luminance" maskUnits="userSpaceOnUse" x="0" y="0" width="24" height="24">
<path d="M23.2791 9.77372H12.245V14.3873H18.5853C18.4833 15.0403 18.2545 15.6826 17.9193 16.2683C17.5353 16.9393 17.0606 17.4502 16.5741 17.8392C15.1166 19.0046 13.4174 19.2429 12.2373 19.2429C9.2562 19.2429 6.70907 17.2325 5.72303 14.5006C5.68323 14.4014 5.65681 14.299 5.62463 14.1978C5.40674 13.5025 5.28768 12.7661 5.28768 12.0008C5.28768 11.2042 5.41661 10.4417 5.65167 9.7216C6.57889 6.88141 9.18345 4.76006 12.2394 4.76006C12.8541 4.76006 13.446 4.83641 14.0073 4.98869C15.2902 5.3367 16.1976 6.02212 16.7537 6.56428L20.1087 3.13576C18.0679 1.18317 15.4074 2.95218e-09 12.2338 2.95218e-09C9.69679 -5.69793e-05 7.35448 0.824781 5.43503 2.21878C3.87842 3.34928 2.60178 4.86288 1.7402 6.62075C0.938812 8.25066 0.5 10.0569 0.5 11.999C0.5 13.9411 0.939483 15.7661 1.74088 17.381V17.3918C2.58735 19.1062 3.82517 20.5823 5.32962 21.7076C6.64392 22.6907 9.00058 24 12.2338 24C14.0932 24 15.7411 23.6502 17.1944 22.9946C18.2428 22.5217 19.1717 21.9049 20.0127 21.1122C21.1239 20.0647 21.9942 18.7691 22.5882 17.2785C23.1823 15.7878 23.5 14.1022 23.5 12.2747C23.5 11.4236 23.4181 10.5592 23.2791 9.77363V9.77372Z" fill="white"/>
</mask>
<g mask="url(#mask0_992_585)">
<g filter="url(#filter0_f_992_585)">
<path d="M0.330078 12.0804C0.342274 13.9919 0.864253 15.9641 1.65436 17.5562V17.5672C2.22524 18.7234 3.00548 19.6367 3.89415 20.5416L9.26154 18.498C8.24606 17.9598 8.09111 17.6299 7.36318 17.0281C6.6193 16.2454 6.06488 15.3468 5.7196 14.2932H5.70569L5.7196 14.2823C5.49245 13.5865 5.47005 12.848 5.46167 12.0804H0.330078Z" fill="url(#paint0_radial_992_585)"/>
</g>
<g filter="url(#filter1_f_992_585)">
<path d="M12.2451 -0.0872803C11.7146 1.85751 11.9175 3.74792 12.2451 4.84784C12.8578 4.84831 13.4479 4.92451 14.0075 5.07632C15.2903 5.42433 16.1977 6.10977 16.7537 6.65193L20.1946 3.13581C18.1562 1.18555 15.7031 -0.0842076 12.2451 -0.0872803Z" fill="url(#paint1_radial_992_585)"/>
</g>
<g filter="url(#filter2_f_992_585)">
<path d="M12.2329 -0.102661C9.63071 -0.10272 7.22828 0.743294 5.25956 2.17309C4.52857 2.70397 3.85776 3.31723 3.26045 3.99919C3.10397 5.53105 4.43184 7.41386 7.06143 7.39828C8.33729 5.84963 10.2243 4.84766 12.3245 4.84766C12.3264 4.84766 12.3283 4.84783 12.3302 4.84783L12.2444 -0.102311C12.2405 -0.102313 12.2368 -0.102661 12.2329 -0.102661Z" fill="url(#paint2_radial_992_585)"/>
</g>
<g filter="url(#filter3_f_992_585)">
<path d="M20.8223 12.6347L18.4997 14.2997C18.3977 14.9527 18.1687 15.595 17.8336 16.1807C17.4496 16.8517 16.9749 17.3626 16.4884 17.7517C15.0339 18.9146 13.3392 19.1541 12.1594 19.1551C10.94 21.3223 10.7262 22.4078 12.2452 24.1569C14.1247 24.1555 15.7911 23.8014 17.2609 23.1385C18.3233 22.6592 19.2646 22.0341 20.1169 21.2307C21.2431 20.1692 22.1252 18.8562 22.7271 17.3456C23.3291 15.8349 23.651 14.1267 23.651 12.2747L20.8223 12.6347Z" fill="url(#paint3_radial_992_585)"/>
</g>
<g filter="url(#filter4_f_992_585)">
<path d="M12.0732 9.59845V14.5626H23.2479C23.3462 13.8828 23.6713 13.003 23.6713 12.2747C23.6713 11.4236 23.5894 10.384 23.4505 9.59845H12.0732Z" fill="#3086FF"/>
</g>
<g filter="url(#filter5_f_992_585)">
<path d="M3.31412 3.82394C2.62453 4.61126 2.0354 5.49249 1.5683 6.44552C0.766917 8.07543 0.328125 10.0569 0.328125 11.999C0.328125 12.0264 0.330296 12.0531 0.330471 12.0805C0.685377 12.7905 5.23285 12.6546 5.46206 12.0805C5.46177 12.0537 5.45888 12.0276 5.45888 12.0007C5.45888 11.2042 5.58784 10.6171 5.82291 9.89693C6.1129 9.00865 6.56696 8.19067 7.14757 7.48592C7.27919 7.31057 7.63026 6.93363 7.73269 6.70753C7.77171 6.62141 7.66185 6.57307 7.65571 6.54276C7.64884 6.50885 7.50155 6.53612 7.46856 6.51086C7.36379 6.43067 7.15633 6.3888 7.03035 6.35158C6.76108 6.27202 6.31483 6.09658 6.06697 5.91471C5.28349 5.33983 4.0608 4.65314 3.31412 3.82394Z" fill="url(#paint4_radial_992_585)"/>
</g>
<g filter="url(#filter6_f_992_585)">
<path d="M6.08361 6.54615C7.90042 7.69454 8.4229 5.9665 9.63083 5.42575L7.5296 0.878906C6.75665 1.2179 6.02637 1.63907 5.34878 2.13117C4.33686 2.86608 3.44326 3.76289 2.70508 4.78347L6.08361 6.54615Z" fill="url(#paint5_radial_992_585)"/>
</g>
<g filter="url(#filter7_f_992_585)">
<path d="M6.82346 18.1468C4.38463 19.0655 4.00281 19.0985 3.77832 20.6756C4.20732 21.1124 4.66825 21.5165 5.15805 21.8829C6.47235 22.866 9.00049 24.1753 12.2338 24.1753C12.2375 24.1753 12.2412 24.1749 12.245 24.1749V19.0675C12.2425 19.0675 12.2397 19.0676 12.2373 19.0676C11.0265 19.0676 10.059 18.7358 9.06703 18.1588C8.82244 18.0165 8.3787 18.3985 8.15313 18.2277C7.84202 17.9922 7.0933 18.4307 6.82346 18.1468Z" fill="url(#paint6_radial_992_585)"/>
</g>
<g opacity="0.5" filter="url(#filter8_f_992_585)">
<path d="M10.8164 18.9066V24.0864C11.2688 24.1417 11.7396 24.1753 12.2335 24.1753C12.7286 24.1753 13.2076 24.1487 13.673 24.1V18.9415C13.1514 19.0345 12.6602 19.0676 12.237 19.0676C11.7496 19.0676 11.2757 19.0084 10.8164 18.9066Z" fill="url(#paint7_linear_992_585)"/>
</g>
</g>
</g>
<defs>
<filter id="filter0_f_992_585" x="-0.140001" y="11.6104" width="9.8718" height="9.40134" filterUnits="userSpaceOnUse" color-interpolation-filters="sRGB">
<feFlood flood-opacity="0" result="BackgroundImageFix"/>
<feBlend mode="normal" in="SourceGraphic" in2="BackgroundImageFix" result="shape"/>
<feGaussianBlur stdDeviation="0.23504" result="effect1_foregroundBlur_992_585"/>
</filter>
<filter id="filter1_f_992_585" x="11.4489" y="-0.55736" width="9.21555" height="7.67936" filterUnits="userSpaceOnUse" color-interpolation-filters="sRGB">
<feFlood flood-opacity="0" result="BackgroundImageFix"/>
<feBlend mode="normal" in="SourceGraphic" in2="BackgroundImageFix" result="shape"/>
<feGaussianBlur stdDeviation="0.23504" result="effect1_foregroundBlur_992_585"/>
</filter>
<filter id="filter2_f_992_585" x="2.77797" y="-0.57274" width="10.0222" height="8.4412" filterUnits="userSpaceOnUse" color-interpolation-filters="sRGB">
<feFlood flood-opacity="0" result="BackgroundImageFix"/>
<feBlend mode="normal" in="SourceGraphic" in2="BackgroundImageFix" result="shape"/>
<feGaussianBlur stdDeviation="0.23504" result="effect1_foregroundBlur_992_585"/>
</filter>
<filter id="filter3_f_992_585" x="10.7047" y="11.8046" width="13.4167" height="12.8224" filterUnits="userSpaceOnUse" color-interpolation-filters="sRGB">
<feFlood flood-opacity="0" result="BackgroundImageFix"/>
<feBlend mode="normal" in="SourceGraphic" in2="BackgroundImageFix" result="shape"/>
<feGaussianBlur stdDeviation="0.23504" result="effect1_foregroundBlur_992_585"/>
</filter>
<filter id="filter4_f_992_585" x="11.6032" y="9.12837" width="12.5378" height="5.90436" filterUnits="userSpaceOnUse" color-interpolation-filters="sRGB">
<feFlood flood-opacity="0" result="BackgroundImageFix"/>
<feBlend mode="normal" in="SourceGraphic" in2="BackgroundImageFix" result="shape"/>
<feGaussianBlur stdDeviation="0.23504" result="effect1_foregroundBlur_992_585"/>
</filter>
<filter id="filter5_f_992_585" x="-0.141954" y="3.35386" width="8.35324" height="9.6796" filterUnits="userSpaceOnUse" color-interpolation-filters="sRGB">
<feFlood flood-opacity="0" result="BackgroundImageFix"/>
<feBlend mode="normal" in="SourceGraphic" in2="BackgroundImageFix" result="shape"/>
<feGaussianBlur stdDeviation="0.23504" result="effect1_foregroundBlur_992_585"/>
</filter>
<filter id="filter6_f_992_585" x="-0.599772" y="-2.42594" width="13.5355" height="12.6629" filterUnits="userSpaceOnUse" color-interpolation-filters="sRGB">
<feFlood flood-opacity="0" result="BackgroundImageFix"/>
<feBlend mode="normal" in="SourceGraphic" in2="BackgroundImageFix" result="shape"/>
<feGaussianBlur stdDeviation="1.65243" result="effect1_foregroundBlur_992_585"/>
</filter>
<filter id="filter7_f_992_585" x="3.30824" y="17.6562" width="9.40696" height="6.98911" filterUnits="userSpaceOnUse" color-interpolation-filters="sRGB">
<feFlood flood-opacity="0" result="BackgroundImageFix"/>
<feBlend mode="normal" in="SourceGraphic" in2="BackgroundImageFix" result="shape"/>
<feGaussianBlur stdDeviation="0.23504" result="effect1_foregroundBlur_992_585"/>
</filter>
<filter id="filter8_f_992_585" x="10.3463" y="18.4365" width="3.7966" height="6.20884" filterUnits="userSpaceOnUse" color-interpolation-filters="sRGB">
<feFlood flood-opacity="0" result="BackgroundImageFix"/>
<feBlend mode="normal" in="SourceGraphic" in2="BackgroundImageFix" result="shape"/>
<feGaussianBlur stdDeviation="0.23504" result="effect1_foregroundBlur_992_585"/>
</filter>
<radialGradient id="paint0_radial_992_585" cx="0" cy="0" r="1" gradientUnits="userSpaceOnUse" gradientTransform="translate(9.15409 20.3615) rotate(-92.29) scale(11.9615 17.1989)">
<stop offset="0.141612" stop-color="#1ABD4D"/>
<stop offset="0.247515" stop-color="#6EC30D"/>
<stop offset="0.311547" stop-color="#8AC502"/>
<stop offset="0.366013" stop-color="#A2C600"/>
<stop offset="0.445673" stop-color="#C8C903"/>
<stop offset="0.540305" stop-color="#EBCB03"/>
<stop offset="0.615636" stop-color="#F7CD07"/>
<stop offset="0.699345" stop-color="#FDCD04"/>
<stop offset="0.771242" stop-color="#FDCE05"/>
<stop offset="0.860566" stop-color="#FFCE0A"/>
</radialGradient>
<radialGradient id="paint1_radial_992_585" cx="0" cy="0" r="1" gradientUnits="userSpaceOnUse" gradientTransform="translate(19.8727 6.39752) scale(8.11677 10.7093)">
<stop offset="0.408458" stop-color="#FB4E5A"/>
<stop offset="1" stop-color="#FF4540"/>
</radialGradient>
<radialGradient id="paint2_radial_992_585" cx="0" cy="0" r="1" gradientUnits="userSpaceOnUse" gradientTransform="translate(15.4394 -1.65286) rotate(150.497) scale(13.0665 17.9308)">
<stop offset="0.231273" stop-color="#FF4541"/>
<stop offset="0.311547" stop-color="#FF4540"/>
<stop offset="0.457516" stop-color="#FF4640"/>
<stop offset="0.540305" stop-color="#FF473F"/>
<stop offset="0.699346" stop-color="#FF5138"/>
<stop offset="0.771242" stop-color="#FF5B33"/>
<stop offset="0.860566" stop-color="#FF6C29"/>
<stop offset="1" stop-color="#FF8C18"/>
</radialGradient>
<radialGradient id="paint3_radial_992_585" cx="0" cy="0" r="1" gradientUnits="userSpaceOnUse" gradientTransform="translate(12.4142 22.6036) rotate(-126.864) scale(34.378 12.6165)">
<stop offset="0.131546" stop-color="#0CBA65"/>
<stop offset="0.209784" stop-color="#0BB86D"/>
<stop offset="0.297297" stop-color="#09B479"/>
<stop offset="0.396257" stop-color="#08AD93"/>
<stop offset="0.477124" stop-color="#0AA6A9"/>
<stop offset="0.568425" stop-color="#0D9CC6"/>
<stop offset="0.667385" stop-color="#1893DD"/>
<stop offset="0.768727" stop-color="#258BF1"/>
<stop offset="0.858506" stop-color="#3086FF"/>
</radialGradient>
<radialGradient id="paint4_radial_992_585" cx="0" cy="0" r="1" gradientUnits="userSpaceOnUse" gradientTransform="translate(11.2369 2.16407) rotate(96.4788) scale(12.9348 17.5154)">
<stop offset="0.366013" stop-color="#FF4E3A"/>
<stop offset="0.457516" stop-color="#FF8A1B"/>
<stop offset="0.540305" stop-color="#FFA312"/>
<stop offset="0.615636" stop-color="#FFB60C"/>
<stop offset="0.771242" stop-color="#FFCD0A"/>
<stop offset="0.860566" stop-color="#FECF0A"/>
<stop offset="0.915033" stop-color="#FECF08"/>
<stop offset="1" stop-color="#FDCD01"/>
</radialGradient>
<radialGradient id="paint5_radial_992_585" cx="0" cy="0" r="1" gradientUnits="userSpaceOnUse" gradientTransform="translate(9.1843 2.03076) rotate(131.51) scale(6.3655 17.9116)">
<stop offset="0.315904" stop-color="#FF4C3C"/>
<stop offset="0.603818" stop-color="#FF692C"/>
<stop offset="0.726837" stop-color="#FF7825"/>
<stop offset="0.884534" stop-color="#FF8D1B"/>
<stop offset="1" stop-color="#FF9F13"/>
</radialGradient>
<radialGradient id="paint6_radial_992_585" cx="0" cy="0" r="1" gradientUnits="userSpaceOnUse" gradientTransform="translate(15.44 25.6525) rotate(-150.497) scale(13.0665 17.9308)">
<stop offset="0.231273" stop-color="#0FBC5F"/>
<stop offset="0.311547" stop-color="#0FBC5F"/>
<stop offset="0.366013" stop-color="#0FBC5E"/>
<stop offset="0.457516" stop-color="#0FBC5D"/>
<stop offset="0.540305" stop-color="#12BC58"/>
<stop offset="0.699346" stop-color="#28BF3C"/>
<stop offset="0.771242" stop-color="#38C02B"/>
<stop offset="0.860566" stop-color="#52C218"/>
<stop offset="0.915033" stop-color="#67C30F"/>
<stop offset="1" stop-color="#86C504"/>
</radialGradient>
<linearGradient id="paint7_linear_992_585" x1="10.8164" y1="21.5409" x2="13.673" y2="21.5409" gradientUnits="userSpaceOnUse">
<stop stop-color="#0FBC5C"/>
<stop offset="1" stop-color="#0CBA65"/>
</linearGradient>
<clipPath id="clip0_992_585">
<rect width="23" height="24" fill="white" transform="translate(0.5)"/>
</clipPath>
</defs>
</svg>
